# xmcd
#
# Track frame offsets: 
#        150
#        29102
#        34922
#        48055
#        56352
#        65215
#        90642
#        105399
#        119885
#        129000
#        139037
#        167127
#
# Disc length: 2417 seconds
#
# Revision: 10
# Processed by: cddbd v1.5.2PL0 Copyright (c) Steve Scherf et al.
# Submitted via: ExactAudioCopy v1.3
#
DISCID=a7096f0c
DTITLE=???? - ?????
DYEAR=1999
DGENRE=Soundtrack
TTITLE0=Summer
TTITLE1=Going Out
TTITLE2=Mad Summer
TTITLE3=Night Mare
TTITLE4=Kindness
TTITLE5=The Rain
TTITLE6=Real Eyes
TTITLE7=Angel Bell
TTITLE8=Two Hearts
TTITLE9=Mother
TTITLE10=River Side
TTITLE11=Summer Road
EXTD=YEAR: 1999
EXTT0=
EXTT1=
EXTT2=
EXTT3=
EXTT4=
EXTT5=
EXTT6=
EXTT7=
EXTT8=
EXTT9=
EXTT10=
EXTT11=
PLAYORDER=
